<?xml version="1.0" standalone="no"?>
<!DOCTYPE svg PUBLIC "-//W3C//DTD SVG 1.1//EN" "http://www.w3.org/Graphics/SVG/1.1/DTD/svg11.dtd" >
<svg xmlns="http://www.w3.org/2000/svg">
<metadata>
Created by FontForge 20120731 at Sat Dec 24 14:25:00 2016
 By admin
</metadata>
<defs>
<font id="iconfont" horiz-adv-x="1024" >
  <font-face 
    font-family="iconfont"
    font-weight="500"
    font-stretch="normal"
    units-per-em="1024"
    panose-1="2 0 6 3 0 0 0 0 0 0"
    ascent="896"
    descent="-128"
    x-height="792"
    bbox="0 -212 1024 893"
    underline-thickness="0"
    underline-position="0"
    unicode-range="U+0078-E6E6"
  />
<missing-glyph 
 />
    <glyph glyph-name=".notdef" 
 />
    <glyph glyph-name=".notdef" 
 />
    <glyph glyph-name=".null" horiz-adv-x="0" 
 />
    <glyph glyph-name="nonmarkingreturn" horiz-adv-x="341" 
 />
    <glyph glyph-name="x" unicode="x" horiz-adv-x="1001" 
d="M281 543q-27 -1 -53 -1h-83q-18 0 -36.5 -6t-32.5 -18.5t-23 -32t-9 -45.5v-76h912v41q0 16 -0.5 30t-0.5 18q0 13 -5 29t-17 29.5t-31.5 22.5t-49.5 9h-133v-97h-438v97zM955 310v-52q0 -23 0.5 -52t0.5 -58t-10.5 -47.5t-26 -30t-33 -16t-31.5 -4.5q-14 -1 -29.5 -0.5
t-29.5 0.5h-32l-45 128h-439l-44 -128h-29h-34q-20 0 -45 1q-25 0 -41 9.5t-25.5 23t-13.5 29.5t-4 30v167h911zM163 247q-12 0 -21 -8.5t-9 -21.5t9 -21.5t21 -8.5q13 0 22 8.5t9 21.5t-9 21.5t-22 8.5zM316 123q-8 -26 -14 -48q-5 -19 -10.5 -37t-7.5 -25t-3 -15t1 -14.5
t9.5 -10.5t21.5 -4h37h67h81h80h64h36q23 0 34 12t2 38q-5 13 -9.5 30.5t-9.5 34.5q-5 19 -11 39h-368zM336 498v228q0 11 2.5 23t10 21.5t20.5 15.5t34 6h188q31 0 51.5 -14.5t20.5 -52.5v-227h-327z" />
    <glyph glyph-name="dizhi" unicode="&#xe630;" 
d="M528 828q-93 0 -171.5 -46.5t-124.5 -127t-46 -175.5q0 -109 61 -198q4 -7 6 -9l233 -299q17 -24 42 -24t42 24l233 299q2 2 6 9q61 89 61 198q0 95 -46 175.5t-124.5 127t-171.5 46.5v0v0zM753 321l-2 -3l-1 -3l-2 -2l-220 -283l-220 283l-2 3l-1 3l-2 2q-48 71 -48 158
q0 116 80 197.5t193 81.5t193.5 -81.5t80.5 -197.5q0 -87 -49 -158v0v0zM528 619q-57 0 -97 -41t-40 -98.5t40.5 -98.5t97 -41t96.5 41t40 98.5t-40 98.5t-97 41v0v0zM528 410q-28 0 -48 20.5t-20 49t20 49t48 20.5t48.5 -20.5t20 -49t-20.5 -49t-48 -20.5v0v0zM711 28z" />
    <glyph glyph-name="pei" unicode="&#xe633;" horiz-adv-x="1025" 
d="M512 -212q-104 0 -199 40.5t-163.5 109t-109 163.5t-40.5 199t40.5 199t109 163.5t163.5 109t199 40.5t199 -40.5t163.5 -109t109 -163.5t40.5 -199t-40.5 -199t-109 -163.5t-163.5 -109t-199 -40.5zM512 776q-97 0 -185 -37.5t-152 -101.5t-101.5 -152t-37.5 -185
t37.5 -185t101.5 -152t152 -101.5t185 -37.5t185 37.5t152 101.5t101.5 152t37.5 185t-37.5 185t-101.5 152t-152 101.5t-185 37.5zM383 432v-135q-2 -145 -95 -236q-15 -13 -29 -2q-13 13 -2 27q88 91 84 213v130q0 19 21 22q19 0 21 -19zM452 213q0 -17 -21 -19
q-21 2 -21 19v250q0 19 -14 17h-68q-21 2 -19 -17v-244q-2 -19 -21 -21q-21 4 -21 23v265q0 38 40 36h114q33 4 31 -40v-269zM402 162q34 -34 61 -65q13 -17 -2 -30q-17 -10 -32 5q-14 16 -38 40q-13 15 -19 21q-14 14 0 31q15 13 30 -2zM709 421q-4 -17 -14 -46
q-5 -17 -7 -23h65q19 0 22 -21q-3 -22 -22 -22h-275q-17 0 -19 22q2 21 19 21h63q0 2 -2 6q-9 36 -13 57t13 27q19 2 23 -19q2 -6 4 -19q8 -33 11 -40q4 -8 0 -12h67q13 29 23 77q6 21 25 19q21 -6 17 -27zM577 531q-5 16 14 25q19 6 28 -11q10 -21 21 -52h90q19 -2 21 -21
q-4 -19 -23 -19h-231q-19 0 -21 21q2 19 21 19h96l-8 16q-6 19 -8 22zM522 269h181q29 -2 32 -40v-136q0 -34 -38 -32h-173q-34 2 -36 32v145q0 31 34 31zM678 105q7 -1 10 1.5t2 9.5v95q2 16 -17 16h-126q-17 0 -17 -12v-99q0 -11 13 -11h135z" />
    <glyph glyph-name="jisukaidian" unicode="&#xe634;" 
d="M512 753q-92 0 -176 -35.5t-145 -96.5t-96.5 -145t-35.5 -176t35.5 -176t96.5 -145t145 -96.5t176 -35.5t176 35.5t145 96.5t96.5 145t35.5 176t-35.5 176t-96.5 145t-145 96.5t-176 35.5zM512 -108q-111 0 -205 54.5t-148.5 148.5t-54.5 205t54.5 205t148.5 148.5
t205 54.5t205 -54.5t148.5 -148.5t54.5 -205t-54.5 -205t-148.5 -148.5t-205 -54.5zM529 555l161 -51l-134 -127l95 -59l-311 -273l84 222l-90 55l195 233v0z" />
    <glyph glyph-name="dunpai" unicode="&#xe631;" 
d="M925 658q-3 2 -7 2q-106 21 -200.5 69.5t-194.5 124.5q-5 5 -14.5 5t-15.5 -5q-101 -77 -173 -118q-16 -9 -35.5 -17.5t-35 -14t-39.5 -13t-36 -10.5t-39.5 -10.5t-36.5 -9.5q-14 -4 -19 -15t-1 -24q11 -246 88 -413q42 -93 133.5 -168.5t201.5 -127.5q7 -3 14 -4
q8 -1 17 4q106 52 194 127.5t134 168.5q77 155 87 421q1 24 -22 28zM808 239q-38 -82 -116 -149.5t-176 -116.5q-212 104 -292 254q-73 134 -85 382q123 33 192 63q66 30 178 116q199 -144 377 -184q-12 -220 -78 -365zM707 538l-1 -1l-1 -1l-1 -1l-1 -1l-1 -1l-1 -1l-1 -1
l-1 -1l-1 -1l-1 -1l-1 -1l-1 -1l-1 -1l-1 -1l-1 -1l-1 -1l-1 -1v-1l-1 -1l-1 -1l-1 -1l-1 -1l-1 -1l-1 -1l-1 -1l-1 -1l-1 -1l-1 -1l-1 -1l-1 -1l-1 -1l-1 -1l-1 -1l-1 -1l-1 -1l-1 -1l-1 -1l-1 -1l-1 -1l-1 -1l-1 -1l-1 -1l-1 -1l-1 -1l-1 -1l-1 -1l-1 -1l-1 -1l-1 -1
l-1 -1l-1 -1l-1 -1l-1 -1l-1 -1l-1 -1l-1 -1l-1 -1l-1 -1l-1 -1l-1 -1l-1 -1l-1 -1l-1 -1l-1 -1l-1 -1l-1 -1l-1 -1l-1 -1l-1 -1l-1 -1l-1 -1l-1 -1l-1 -1l-1 -1l-1 -1l-1 -1l-1 -1l-1 -1l-1 -1l-1 -1l-1 -1l-1 -1l-1 -1l-1 -1l-1 -1l-1 -1l-1 -1l-1 -1l-1 -1l-1 -1l-1 -1
l-1 -1l-1 -1l-1 -1l-1 -2l-1 -1l-1 -1l-1 -1l-1 -1l-1 -1l-1 -1l-1 -1l-1 -1l-1 -1l-1 -1l-1 -1l-1 -1l-1 -1l-1 -1l-1 -1l-1 -1l-1 -1l-1 -1l-1 -1l-1 -1l-1 -1l-1 -1l-1 -1l-1 -1l-1 -1l-1 -1l-1 -1l-1 -1l-1 -1l-1 -1l-1 -1l-1 -1l-1 -1l-1 -1l-1 -1l-1 -1l-1 -1l-1 -1
l-1 -1l-1 -1l-1 -1l-1 -1l-1 -1l-1 -1l-1 -1l-1 -1l-1 -1l-1 -1l-1 -1l-1 -1l-1 -1l-1 -1l-1 -1l-1 -1l-1 -1l-1 -1l-1 -1l-1 -1l-1 -1l-1 -1l-1 -1l-1 -1l-1 -1l-1 -1l-1 -1v-1l-1 -1l-1 -1l-1 -1l-1 -1l-1 -1l-1 -1l-1 -1l-1 -1l-1 -1l-1 -1l-1 -1l-1 -1l-1 -1l-1 -1
l-1 -1l-1 -1l-1 -1l-1 -1l-1 -1l-1 -1l-1 -1l-1 -1l-1 -1l-1 -1l-1 -1l-1 -1l-1 -1l-1 -1l-1 -1l-1 -1l-1 -1l-1 -1l-1 -1l-1 -1l-1 -1l-1 -1l-1 -1l-1 -1l-1 -1l-1 -1l-1 -1l-1 -1l-1 -1l-1 -1l-1 -1l-1 -1l-1 -1l-1 -1l-1 -1l-1 -1l-1 -1l-1 -1l-1 -1l-1 -1l-1 -1l-1 -1
l-1 -1l-1 -1l-1 -1l-1 -1l-1 -1l-1 -1l-1 -1l-1 -1l-1 -1l-1 -1l-1 -1l-1 -1l-1 -1l-1 -1l-1 -1l-1 -1l-1 -1l-1 -1l-1 -1l-1 -2q-110 111 -125 127q-13 13 -29.5 7t-20.5 -21t7 -29q24 -25 72 -73t72 -73l2 -2q9 -9 20 -10t22 9q227 231 258 261q13 13 7 29.5t-20.5 20.5
t-29.5 -7z" />
    <glyph glyph-name="unie605" unicode="&#xe632;" horiz-adv-x="1025" 
d="M847 314q-8 0 -13.5 -5.5t-5.5 -13.5v-268q0 -16 -11.5 -27.5t-27.5 -11.5h-536q-16 0 -27 11.5t-11 27.5v268q0 8 -6 13.5t-13.5 5.5t-13.5 -5.5t-6 -13.5v-268q0 -31 22.5 -53.5t53.5 -22.5h538q31 0 53 22.5t22 53.5v268q0 8 -5 13.5t-13 5.5zM944 568l-122 225h-1
q-20 36 -61 37h-471q-44 0 -66 -37h-1l-122 -225q-18 -29 -18 -64q0 -51 36.5 -87t87.5 -37q34 0 61.5 16t44.5 43q17 -27 45 -42.5t60.5 -15.5t60.5 16t45 42q16 -26 44 -42t61 -16t60.5 15.5t44.5 42.5q16 -27 44.5 -42.5t60.5 -16.5q52 0 88.5 36.5t36.5 87.5
q0 35 -19 64v0zM839 419q-36 0 -61.5 25t-25.5 60q0 3 -0.5 6.5t-5.5 9t-13 5.5t-14 -6t-6 -14q0 -35 -25 -60.5t-60.5 -25.5t-60.5 25.5t-25 60.5q0 8 -6 14t-13.5 6t-13.5 -6t-6 -14q0 -35 -25.5 -60.5t-61 -25.5t-60.5 25.5t-25 60.5q0 8 -5.5 14t-13.5 6
q-9 0 -13.5 -5.5t-5.5 -9t-1 -5.5q0 -36 -25 -61t-61 -25q-35 0 -60.5 25t-25.5 60q0 10 5 24t10 24l4 9l116 212q12 20 34 20l3 -1v1h460v-1q3 1 4 1q21 0 33 -20l116 -212q19 -36 19 -57q0 -35 -25 -60t-60 -25v0z" />
    <glyph glyph-name="pinzhibaozhang" unicode="&#xe635;" 
d="M867 707q-17 15 -40 15h-4l-3 -0.5t-9 -0.5h-12q-63 0 -116 12q-25 7 -55.5 26.5t-58 41.5t-30.5 24q-17 11 -33 11q-21 0 -33 -10q-1 -1 -18.5 -17t-32.5 -28t-40.5 -26.5t-48.5 -20.5q-49 -12 -117 -12h-12t-9 0.5t-4 0.5h-4q-23 0 -40 -15q-18 -19 -18 -42v-145
q0 -85 12.5 -160.5t32 -130.5t47.5 -102t55.5 -78t60.5 -56t56.5 -38.5t50 -23.5t35.5 -12t17 -4q3 -1 10 -1t10 1q8 2 17 4t35.5 12t50.5 23.5t57 38.5t60.5 56t56 78t48 102t32 130.5t12.5 160.5v144q1 24 -18 42v0v0v0zM828 520q0 -100 -18 -184.5t-45 -139t-64 -98
t-67 -65.5t-63.5 -37.5t-45.5 -18.5t-18 -5v0q-7 2 -18.5 5t-44.5 18.5t-63 37.5t-67 65.5t-63 98t-44.5 139t-18.5 184.5v145q12 -1 29 -1q74 0 131 14q36 9 75.5 34t61.5 45l22 21q9 -9 25 -23t59 -41t79 -36q57 -14 130 -14l28 1v-145v0v0v0zM828 520zM374 411v131h168
v-37h-131v-37h130v-37h-112v-148h37v109h186v-111h37v149h-110v37h148v37h-148v37q99 10 149 18l-37 37q-21 -3 -44 -5.5t-39.5 -4.5t-44.5 -3t-40.5 -2t-46.5 -1.5t-42.5 -0.5h-49.5h-48v-168q1 -63 -7 -100.5t-30 -67.5q2 -8 9 -27.5t9 -29.5q60 81 57 225v0v0zM700 189
q11 16 27 35q-15 7 -52.5 24t-66.5 31l-29 14q-1 2 -1 80h-37v-57q-2 -30 -49.5 -56t-100.5 -37q13 -20 17 -37q32 8 70 26.5t60 33.5l21 15q76 -38 141 -72v0zM700 189z" />
    <glyph glyph-name="dian" unicode="&#xe681;" 
d="M512 384zM384 384q0 53 37.5 90.5t90.5 37.5t90.5 -37.5t37.5 -90.5t-37.5 -90.5t-90.5 -37.5t-90.5 37.5t-37.5 90.5z" />
    <glyph glyph-name="hziconback" unicode="&#xe600;" 
d="M760 -123q-17 0 -30 12l-506 466q-14 13 -14 32t14 32l506 461q14 12 32.5 11.5t31 -14t11.5 -32t-14 -30.5l-471 -428l471 -434q13 -12 14 -30.5t-12 -31.5q-13 -14 -33 -14z" />
    <glyph glyph-name="hziconcart" unicode="&#xe601;" 
d="M347 44q-21 0 -36 -15t-15 -36.5t15 -36.5t36.5 -15t36.5 15t15 36.5t-15 36.5t-37 15v0v0zM791 44q-22 0 -37 -15t-15 -36.5t15 -36.5t36.5 -15t36.5 15t15 36.5t-15 36.5t-36 15v0v0zM869 94h-526q-33 0 -59 23.5t-30 56.5v0l-55 387l-31 181v0q-2 13 -12.5 22.5
t-22.5 9.5h-41q-11 0 -19 8t-8 19t8 19t19 8h41q32 0 57.5 -22.5t30.5 -55.5l31 -181l56 -388q1 -14 12 -24q10 -9 23 -9h526q11 0 19 -8t8 -19t-8 -19t-19 -8v0zM384 226q-11 0 -18.5 7t-8.5 18t6.5 19t18.5 9l439 33v0q14 0 24 9t12 21v1l51 292v0q2 20 -10 34q-7 8 -19 8
h-560q-12 0 -19.5 8t-7.5 19t7.5 19t19.5 8h560q36 0 60 -27q27 -31 22 -76v-3l-51 -291q-5 -31 -29.5 -53t-56.5 -23l-438 -32h-2v0zM384 226z" />
    <glyph glyph-name="hzicondingdan" unicode="&#xe602;" 
d="M771 -59h-522q-43 0 -73.5 30.5t-30.5 73.5v628q0 44 30.5 74.5t73.5 30.5h52v26q0 11 8 18.5t18 7.5h366q11 0 18.5 -7.5t7.5 -18.5v-26h52q43 0 73.5 -30.5t30.5 -74.5v-628q0 -43 -30.5 -73.5t-73.5 -30.5v0v0zM823 673q0 22 -15 37t-37 15h-78h-366h-78
q-21 0 -36.5 -15t-15.5 -37v-628q0 -21 15.5 -36.5t36.5 -15.5h522q22 0 37 15.5t15 36.5v628v0v0zM301 150h418v-52h-418v52v0v0zM301 307h418v-52h-418v52v0v0zM301 464h418v-52h-418v52v0v0zM301 621h418v-52h-418v52v0v0zM301 621z" />
    <glyph glyph-name="hziconfenlei" unicode="&#xe603;" 
d="M834 406h-212q-35 0 -59.5 24.5t-24.5 59.5v226q0 35 24.5 59.5t59.5 24.5h212q35 0 60 -24.5t25 -59.5v-226q0 -35 -25 -59.5t-60 -24.5v0zM622 750q-14 0 -24 -10t-10 -24v-226q0 -14 10 -23.5t24 -9.5h212q14 0 24 9.5t10 23.5v226q0 14 -10 24t-24 10h-212v0z
M622 750zM400 406h-212q-35 0 -60 24.5t-25 59.5v226q0 35 25 59.5t60 24.5h212q35 0 60 -24.5t25 -59.5v-226q0 -35 -25 -59.5t-60 -24.5v0zM188 750q-14 0 -24 -10t-10 -24v-226q0 -14 10 -23.5t24 -9.5h212q14 0 24 9.5t10 23.5v226q0 14 -10 24t-24 10h-212v0zM188 750z
M400 -37h-212q-35 0 -60 25t-25 60v226q0 35 25 59.5t60 24.5h212q35 0 60 -24.5t25 -59.5v-226q0 -35 -25 -60t-60 -25v0zM188 307q-14 0 -24 -9.5t-10 -23.5v-226q0 -14 10 -24t24 -10h212q14 0 24 10t10 24v226q0 14 -10 23.5t-24 9.5h-212v0zM188 307zM736 -20
q-78 0 -134 56t-56 134.5t56 134t134.5 55.5t134.5 -55.5t56 -134t-56 -134.5t-135 -56v0zM736 310q-57 0 -98 -41t-41 -98.5t41 -98.5t98.5 -41t98.5 41t41 98.5t-41 98.5t-99 41v0zM736 310z" />
    <glyph glyph-name="hziconhome" unicode="&#xe604;" 
d="M930 444l-338 352q-33 34 -79.5 34t-78.5 -34l-339 -352q-16 -17 -22.5 -34.5t-6 -28t4.5 -18.5q15 -35 58 -35h49v-270q0 -48 30.5 -84t76.5 -36h144v287v11.5v11t1 8.5t2.5 7.5l4.5 4.5t7.5 4t11.5 1h114q6 0 11 -1t8 -4l4.5 -4.5t2.5 -7.5t1 -8.5v-11v-11.5v-287h144
q45 0 75.5 36t30.5 84v270h50q43 0 58 35q4 8 4.5 18.5t-6.5 28t-23 34.5v0zM897 384h-105v-326q0 -25 -14.5 -44.5t-36.5 -19.5h-89v231q0 103 -82 103h-114q-83 0 -83 -103v-231h-88q-22 0 -36.5 19.5t-14.5 44.5v326h-105q-1 0 -2 2l-1 2q9 16 11 18l338 351q16 17 38 17
q21 0 38 -17l338 -351q2 -2 11 -18q-1 0 -1.5 -2t-1.5 -2v0z" />
    <glyph glyph-name="hziconme" unicode="&#xe605;" 
d="M629 319q68 33 109.5 98t41.5 144q0 112 -79 191.5t-191 79.5t-191 -79.5t-79 -191.5q0 -79 41.5 -144t109.5 -98q-113 -37 -188.5 -131t-84.5 -215q-1 -13 7.5 -22t21 -10t21.5 7t10 20q10 130 106 219.5t226 89.5t226 -89.5t106 -219.5q1 -11 9.5 -19t20.5 -8h2
q12 1 20.5 10t7.5 22q-9 121 -84.5 215t-188.5 131v0zM300 561q0 87 61.5 149t148.5 62t148.5 -62t61.5 -149t-61.5 -148.5t-148.5 -61.5t-148.5 61.5t-61.5 148.5v0zM300 561z" />
    <glyph glyph-name="hziconmenu" unicode="&#xe606;" 
d="M926 775h-835q-11 0 -19 -8t-8 -19v-27q0 -11 8 -19t19 -8h835q12 0 19.5 8t7.5 19v27q0 11 -7.5 19t-19.5 8zM926 425h-835q-11 0 -19 -8t-8 -19v-27q0 -12 8 -19.5t19 -7.5h835q12 0 19.5 7.5t7.5 19.5v27q0 11 -7.5 19t-19.5 8zM926 74h-835q-11 0 -19 -8t-8 -19v-27
q0 -11 8 -19t19 -8h835q12 0 19.5 8t7.5 19v27q0 11 -7.5 19t-19.5 8z" />
    <glyph glyph-name="hziconsearch" unicode="&#xe607;" 
d="M607 284q15 15 36 15t36 -15l322 -322q15 -15 15 -36t-15 -36t-36 -15t-36 15l-322 323q-15 14 -15 35t15 36zM662 778q-73 73 -171 99t-196 0t-171 -99t-98.5 -170.5t0 -195.5t98.5 -171t171 -99t196 0t171 99t99 171t0 195.5t-99 170.5zM608 295q-89 -89 -215 -89
t-215 89t-89 215t89 215t215 89t215 -89t89 -215t-89 -215zM662 778q-73 73 -171 99t-196 0t-171 -99t-98.5 -170.5t0 -195.5t98.5 -171t171 -99t196 0t171 99t99 171t0 195.5t-99 170.5zM608 295q-89 -89 -215 -89t-215 89t-89 215t89 215t215 89t215 -89t89 -215t-89 -215
z" />
    <glyph glyph-name="hziconshaixuan" unicode="&#xe609;" 
d="M894 639q22 20 22 41q0 35 -54 64t-147 46t-202.5 17t-202.5 -17t-146.5 -46t-53.5 -64q0 -11 6 -22h-1l3 -3q4 -7 12 -14l277 -329v-315h1q-1 -5 2 -10l3 -6q4 -8 12.5 -11t16.5 1l172 86q12 7 11 20v14v215l269 333v0zM182 680q0 29 97 49t234 20t233.5 -20t96.5 -48.5
t-96.5 -48.5t-233.5 -20t-234 20t-97 48v0zM572 330l-5 -7v-232l-102 -52v295l-3.5 4.5t-7.5 8.5l-4 5l-196 231q112 -29 259 -29q151 0 265 31l-206 -255v0z" />
    <glyph glyph-name="hziconxiangxia" unicode="&#xe60b;" 
d="M949.5 634q-17.5 16 -41.5 15.5t-41 -17.5l-359 -373l-349 375q-16 18 -39.5 18.5t-40.5 -16t-17.5 -40.5t15.5 -41l390 -419q16 -18 39.5 -18.5t40.5 16.5l2 2l2 2l400 415q17 17 16.5 41t-18 40z" />
    <glyph glyph-name="hzicondown" unicode="&#xe608;" 
d="M64 892l446 -446l446 446h-892z" />
    <glyph glyph-name="hziconup" unicode="&#xe60a;" 
d="M956 -125l-446 446l-446 -446h892z" />
    <glyph glyph-name="hziconright" unicode="&#xe60c;" 
d="M256 893q17 0 30 -12l506 -466q14 -13 14 -32.5t-14 -32.5l-506 -460q-14 -12 -32.5 -11.5t-31 14t-11.5 31.5t15 31l470 428l-471 433q-13 13 -13.5 31t11.5 32q13 14 33 14z" />
    <glyph glyph-name="hziconshare" unicode="&#xe60e;" 
d="M798 290q-38 0 -71.5 -17.5t-56.5 -47.5l-232 109q7 26 7 52t-7 52l232 109q23 -30 56.5 -47t71.5 -17q67 0 114 47t47 113.5t-47 113.5t-113.5 47t-113.5 -47t-47 -114q0 -17 5 -37l-233 -110q-26 39 -67.5 61t-90.5 22q-80 0 -136.5 -56.5t-56.5 -136.5t56.5 -136
t136.5 -56q49 0 90.5 22t67.5 60l233 -109q-5 -21 -5 -38q0 -66 47 -113t113.5 -47t113.5 47t47 113.5t-47 113.5t-114 47v0zM798 740q40 0 68.5 -28.5t28.5 -68.5t-28.5 -68t-68 -28t-68 28t-28.5 68t28.5 68.5t67.5 28.5v0zM252 258q-53 0 -90.5 37.5t-37.5 90.5t37.5 91
t90.5 38t91 -38t38 -91t-38 -90.5t-91 -37.5v0zM798 33q-39 0 -67.5 28t-28.5 68t28.5 68.5t68 28.5t68 -28.5t28.5 -68.5t-28.5 -68t-68.5 -28v0z" />
    <glyph glyph-name="hziconaddress" unicode="&#xe60d;" 
d="M860 462q-17 -70 -47.5 -136.5t-74.5 -129.5t-84 -111.5t-98 -111.5q-1 -2 -5 -6q-20 -19 -28 -23t-16.5 0t-27.5 23q-197 203 -285 411q-23 54 -23 113t21 112.5t57.5 99.5t90 77.5t114.5 41.5q151 24 264.5 -60t137.5 -237l4 -11v-52zM514 -21q77 92 81 98
q67 84 114.5 155.5t80.5 148.5q35 78 22 150q-22 124 -116.5 194.5t-219.5 55.5q-56 -6 -105.5 -33t-82.5 -66.5t-54 -89t-20 -100.5t20 -101q55 -128 173 -282q6 -7 107 -130zM514 363q-51 0 -86 35.5t-35 85.5t36.5 86t86.5 36q49 -1 85 -36.5t36 -85.5t-36 -85.5
t-87 -35.5zM437 485.5q0 -32.5 22 -56t54.5 -24t56 22.5t23.5 55q1 32 -21.5 55t-55.5 24q-33 0 -56 -22t-23 -54.5z" />
    <glyph glyph-name="hzicondingdan2" unicode="&#xe610;" 
d="M122 653q2 6 7 18.5t9.5 22t10.5 17.5q24 34 59 44t86 7v-40q-40 0 -42 -1q-38 -1 -62 -24.5t-24 -60.5q-2 -303 0 -546q0 -47 31 -76t79 -30h472q48 1 79 30t31 76q2 236 0 546q0 38 -23.5 61t-62.5 24h-41v38q55 15 103 -11.5t63 -81.5q0 -1 6 -19v-571
q-5 -9 -13.5 -28t-15.5 -32.5t-16 -25.5q-16 -22 -40 -32.5t-62 -17.5h-487q-85 14 -116 65q-6 10 -11 21.5t-11 26.5t-9 23v577zM417 706v36h76v42h-96v37h235v-35h-96v-43h77v-37h-196zM309 374v34h406v-34h-406zM309 237v34h405v-34h-405zM715 545v-32h-405v32h405z" />
    <glyph glyph-name="hziconquan" unicode="&#xe611;" 
d="M894 -38h-763q-63 28 -60 107q2 32 1 135q-1 53 49 73q75 29 75 108.5t-75 108.5q-50 19 -49 73v67.5v67.5q0 51 13 71t58 38h739q45 -18 58 -38t13 -71v-68v-68q1 -52 -49 -72q-75 -29 -76 -109q0 -37 19.5 -66t56.5 -42q49 -19 49 -73q-1 -111 0 -135q4 -79 -59 -107z
M512 3h351q27 0 38 11t11 37q1 20 0.5 75.5t0.5 74.5q0 28 -26 39q-99 42 -98 146q0 103 99 145q25 10 25 37q-1 26 -0.5 76.5t-0.5 76.5q0 26 -11.5 37t-38.5 11h-701q-26 0 -37 -11.5t-12 -37.5q0 -20 0.5 -75.5t-0.5 -74.5q-1 -29 26 -40q98 -41 98 -145t-99 -145
q-25 -10 -25 -37q1 -14 0.5 -73t-0.5 -74q0 -31 11.5 -42t41.5 -11h347zM490 316v81h-104q-26 0 -28 1q-4 1 -7.5 4.5t-7.5 8t-6 6.5q2 2 6.5 7t8 8t6.5 4q4 0 72 1q1 0 29 2q-66 67 -70 71q-6 7 -18 19l-16 16q-7 6 -9 8.5t-5.5 8.5t-2.5 11t7 11q4 4 8 5.5t6.5 1.5
t6.5 -2.5t5.5 -4l6 -6l5.5 -5.5q18 -18 129 -130q89 89 96 97q4 3 13 12.5t15.5 16t13.5 11.5q3 2 8 3t12 1t10 1v-11.5t-0.5 -13t-2.5 -7.5q-11 -12 -98 -99q0 -1 -13 -17h88q9 0 12.5 -0.5t10 -2t8.5 -6t1 -12.5q-1 -6 -12 -12t-20 -6q-15 -1 -122 -1v-82q99 0 111 -1
q3 0 13.5 1t15.5 0.5t10 -6t5 -15.5t-5.5 -14.5t-10 -5t-15.5 0t-13 0.5q-11 -1 -113 -1q0 -90 -1 -102q0 -5 -3 -9.5t-8 -11t-7 -9.5q-2 3 -7.5 9t-8.5 11t-3 10q-1 12 -1 102q-91 0 -104 1h-28q-4 2 -7.5 5t-8 7.5l-6.5 6.5q2 2 6.5 7.5t8.5 8.5t7 3q12 1 107 2q1 0 24 1z
" />
    <glyph glyph-name="hziconshoucang" unicode="&#xe60f;" 
d="M697 796h20q36 -7 37 -7q98 -23 155.5 -112.5t41.5 -193.5q-15 -98 -105 -211q-62 -79 -138.5 -149t-179.5 -152h-31q-24 17 -25 18l-72 64t-90.5 81t-70.5 66q-94 90 -139 192q-7 17 -12.5 36t-11.5 44t-10 37v31q5 24 6 25q10 81 64.5 143.5t131.5 79.5q2 1 39 8h21
q37 -7 39 -8q82 -18 143 -93q52 49 55 51q44 36 132 50zM510 30q56 45 58 47q60 51 96.5 84t84 83.5t80.5 98.5q39 55 57.5 105t11.5 106q-9 68 -55 118t-111 61q-60 10 -114.5 -20.5t-85.5 -92.5l-2.5 -5.5t-3.5 -8.5q-14 -20 -29 0q-1 2 -3 5t-3.5 7t-2.5 6
q-63 118 -184 110q-116 -7 -166 -129q-42 -105 28 -220q16 -27 36 -54t35 -46t44 -48.5t40 -41.5t48.5 -44.5t44 -38.5t50.5 -43t46 -39z" />
    <glyph glyph-name="hziconshoucangok" unicode="&#xe612;" 
d="M754 789q-1 0 -37 7h-20q-88 -14 -132 -50q-3 -2 -55 -51q-61 75 -143 93q-2 1 -39 8h-21q-37 -7 -39 -8q-77 -17 -131.5 -79.5t-64.5 -143.5q-1 -1 -6 -25v-31q4 -12 10 -37t11.5 -44t12.5 -36q45 -102 139 -192q34 -33 70.5 -66t90.5 -81l72 -64q1 -1 25 -18h31
q103 82 179.5 152t138.5 149q90 113 105 211q16 104 -41.5 193.5t-155.5 112.5z" />
    <glyph glyph-name="hziconok" unicode="&#xe613;" 
d="M396 85q-20 0 -34 14l-281 274q-14 14 -14 33t14 33t34 14t34 -14l247 -241l482 470q14 14 34 14t34 -14t14 -33t-14 -33l-516 -503q-14 -14 -34 -14v0v0z" />
    <glyph glyph-name="hziconhua" unicode="&#xe614;" 
d="M403 -34q-15 0 -24 11q-23 26 -54.5 45t-57.5 28t-53.5 14t-38 5.5t-16.5 0.5v0q-14 0 -23 9.5t-9 22.5t9 22.5t22 9.5q6 1 21 0t47 -7t64 -17t70 -35t67 -56q9 -10 8 -23t-11 -22q-9 -8 -21 -8v0v0zM617 -34q-13 0 -22 8q-9 9 -9.5 22.5t8.5 23.5q30 32 68.5 55.5
t70 34.5t63.5 17t46 7t20 0q13 0 22.5 -9.5t9 -22.5t-9.5 -22.5t-22 -9.5h-1v0q-6 0 -16 -0.5t-37.5 -5.5t-53 -14t-57.5 -28.5t-57 -45.5q-9 -10 -23 -10v0v0zM561 128h-102q-5 0 -9 2q-81 10 -148 55.5t-111 121.5q-51 87 -62 191t23 185q8 19 29 20h10q91 0 169 -34
q56 103 127 154q4 3 8 5v0q16 7 31 -2q2 -1 4 -3q70 -52 126 -156q80 36 174 36h9q21 -1 29 -20q34 -81 23.5 -185t-62.5 -191q-44 -75 -111 -121t-148 -56q-5 -2 -9 -2v0v0zM510 -62q-13 0 -22.5 9.5t-9.5 22.5v190q0 14 9.5 23t22.5 9t22.5 -9t9.5 -23v-190
q0 -13 -9.5 -22.5t-22.5 -9.5v0v0zM510 -62z" />
    <glyph glyph-name="hziconadd" unicode="&#xe615;" 
d="M447 830h128v-896h-128v896zM63 446h896v-128h-896v128z" />
    <glyph glyph-name="hziconjian" unicode="&#xe616;" 
d="M63 446h896v-128h-896v128z" />
    <glyph glyph-name="hzicondel" unicode="&#xe618;" 
d="M512 575q-12 0 -20.5 -8.5t-8.5 -20.5v-444q0 -12 8.5 -20.5t20.5 -8.5t20.5 8.5t8.5 20.5v444q0 12 -8.5 20.5t-20.5 8.5v0zM512 575zM350 575q-12 0 -20.5 -8.5t-8.5 -20.5v-444q0 -12 8.5 -20.5t20.5 -8.5t20.5 8.5t8.5 20.5v444q0 12 -8.5 20.5t-20.5 8.5v0zM350 575
zM674 575q-12 0 -20.5 -8.5t-8.5 -20.5v-444q0 -12 8.5 -20.5t20.5 -8.5t20.5 8.5t8.5 20.5v444q0 12 -8.5 20.5t-20.5 8.5v0zM674 575zM925 709h-190v69q0 23 -18.5 38.5t-45.5 15.5h-318q-27 0 -45 -15.5t-18 -38.5v-69h-196q-12 0 -20.5 -8.5t-8.5 -20.5t8.5 -20.5
t20.5 -8.5h77v-652q0 -26 19 -44t45 -18h555q26 0 44.5 18t18.5 44v652h72q12 0 20.5 8.5t8.5 20.5t-8.5 20.5t-20.5 8.5v0zM348 774h329v-65h-329v65v0zM753 -5h-3q-444 -2 -479 -2q-19 0 -30 12q-13 13 -12 33v575q0 16 7.5 25.5t14 11.5t12.5 2l7 -1h481q18 0 31 -9
t13 -29v-296q1 -250 1 -283q0 -20 -14 -29.5t-29 -9.5v0zM753 -5z" />
    <glyph glyph-name="hziconedit" unicode="&#xe619;" 
d="M343 340q-1 -2 -2 -3l-44 -164q-5 -16 7 -27q8 -8 19 -8q4 0 8 1l163 44h0.5h0.5q3 0 5 2l436 437q20 20 20 49q0 35 -25 60l-41 42q-26 25 -60 25q-30 0 -50 -20l-436 -437q-1 0 -1 -0.5v-0.5zM894 664l-44 -43l-70 71l43 43q5 5 13 4.5t14 -6.5l42 -41q6 -7 6 -16
q0 -7 -4 -12zM420 333l315 315l71 -72l-315 -314l-71 71v0v0v0zM363 205l23 84l61 -61l-84 -23v0v0v0zM921 491q-12 0 -21 -8.5t-9 -21.5v-407q0 -16 -11.5 -27.5t-27.5 -11.5h-688q-16 0 -27.5 11.5t-11.5 27.5v664q0 16 11.5 27.5t27.5 11.5h443q13 0 21.5 9t8.5 21.5
t-8.5 21t-21.5 8.5h-448q-39 0 -66.5 -27.5t-27.5 -66.5v-673q0 -39 27.5 -67t66.5 -28h698q39 0 66.5 28t27.5 67v411q0 13 -8.5 21.5t-21.5 8.5v0z" />
    <glyph glyph-name="hziconmoney" unicode="&#xe61a;" 
d="M885 217v-75h-74v-74h-748v485h75v75h75v75h747v-486h-75v0zM101 516v-411h672v411h-672v0zM923 665h-673v-37h318v-37h-392v-38h635v-373h37v411h-280v37h317v-374h38v411v0zM529 432l-73 -73v-11h74v-38h-74v-37h74v-37h-74v-75h-38v75h-74v37h74v37h-74v38h74v11v0
l-74 73l27 27l66 -66l66 65l26 -26v0z" />
    <glyph glyph-name="hziconweifu" unicode="&#xe61b;" 
d="M387 282q-6 -4 -13 -4q-18 0 -26 16l-2 4l-81 178q-1 3 -1 6q0 6 4 10.5t10 4.5q5 0 9 -3l96 -68q11 -7 24 -7q8 0 15 2l450 200q-62 73 -157.5 115t-205.5 42q-121 0 -223.5 -49.5t-162.5 -135t-60 -185.5q0 -83 41 -156t113 -125q13 -9 13 -24q0 -4 -2 -9
q-3 -11 -8 -30.5t-8.5 -31.5t-3.5 -13q-2 -9 -2 -11q0 -6 4 -10.5t11 -4.5q3 0 8 3l98 56q11 7 23 7q7 0 13 -2q71 -20 146 -20q120 0 222.5 49.5t162.5 135t60 186.5q0 91 -51 171l-513 -295l-3 -2v0z" />
    <glyph glyph-name="hziconzhi" unicode="&#xe61c;" 
d="M957 221v439q0 71 -50 121t-121 50h-549q-71 0 -121 -50t-50 -121v-549q0 -71 50 -121t121 -50h549q63 0 110.5 40t58.5 101q-246 106 -345 154q-63 -76 -129 -114t-155 -38q-91 0 -147 49.5t-48 119.5q2 21 8.5 40.5t23 41.5t40.5 36.5t65 22.5t93 3q20 -2 37.5 -4.5
t34.5 -6t28.5 -6t29.5 -8t26 -8t30.5 -10l31.5 -10.5q30 56 49 121h-346v35h171v61h-209v38h209v89q2 14 18 14h85v-103h223v-38h-223v-61h182q-25 -101 -74 -186q24 -8 97 -31t134.5 -42l61.5 -19v0v0v0zM313 142q-46 0 -78 13t-46 32.5t-18.5 38t-1.5 33.5q6 30 36.5 54
t80.5 24q114 0 247 -64q-48 -63 -104.5 -97t-115.5 -34v0v0z" />
    <glyph glyph-name="hziconpricelist" unicode="&#xe61d;" 
d="M598 720l-86 -196l-91 196h-107l129 -218h-194v-76h216v-112h-216v-72h216v-193h91v193h208v72h-208v112h208v76h-186l127 218h-107v0zM786 829q70 0 119 -49t49 -119v-553q0 -70 -49 -119t-119 -49h-553q-69 0 -118.5 49t-49.5 119v553q0 70 49.5 119t118.5 49h553v0z
M786 766h-553q-43 0 -74 -30.5t-31 -74.5v-553q0 -43 31 -74t74 -31h553q44 0 74.5 31t30.5 74v553q0 44 -30.5 74.5t-74.5 30.5v0v0z" />
    <glyph glyph-name="hziconprolist" unicode="&#xe61e;" 
d="M449 640h-159v-64h159v64v0zM290 257h446v64h-446v-64v0zM449 480h-159v-63h159v63v0zM672 640h-96q-26 0 -44.5 -19t-18.5 -45v-96q0 -26 18.5 -44.5t44.5 -18.5h96q26 0 45 18.5t19 44.5v96q0 26 -19 45t-45 19v0zM672 512q0 -13 -9.5 -22.5t-22.5 -9.5h-32
q-13 0 -22.5 9.5t-9.5 22.5v32q0 13 9.5 22.5t22.5 9.5h32q13 0 22.5 -9.5t9.5 -22.5v-32v0zM831 831h-637q-39 0 -67 -28t-28 -68v-700q0 -40 28 -68t67 -28h637q40 0 68 28t28 68v700q0 40 -28 68t-68 28v0zM863 66q0 -26 -18.5 -44.5t-45.5 -18.5h-573q-26 0 -45 18.5
t-19 44.5v637q0 27 19 45.5t45 18.5h573q27 0 45.5 -18.5t18.5 -45.5v-637v0zM290 98h446v64h-446v-64v0z" />
    <glyph glyph-name="hziconx" unicode="&#xe617;" 
d="M781 159l-245 226l245 222q7 7 7 16.5t-6.5 16t-16 7t-16.5 -5.5l-242 -221l-243 221q-7 6 -16.5 5.5t-16 -7t-6 -16t7.5 -16.5l245 -222l-245 -226q-7 -6 -7.5 -15.5t6.5 -16.5q6 -7 16 -7t16 6l243 223l242 -223q7 -6 16 -6q10 0 17 7q6 7 6 16.5t-7 15.5zM509 834
q-91 0 -173.5 -35.5t-142.5 -95.5t-95.5 -142.5t-35.5 -173.5t35.5 -174t95.5 -143t142.5 -95.5t173.5 -35.5t174 35.5t143 95.5t95.5 143t35.5 174t-35.5 173.5t-95.5 142.5t-143 95.5t-174 35.5zM509.5 -25q-111.5 0 -206.5 55t-150 150t-55 206.5t55 206.5t150 150
t206.5 55t206.5 -55t150 -150t55 -206.5t-55 -206.5t-150 -150t-206.5 -55z" />
    <glyph glyph-name="hzicongerenpwd" unicode="&#xe61f;" 
d="M522 341q-31 0 -53 -22t-22 -53q0 -21 12 -39t31 -28v-81q0 -14 9.5 -23t22.5 -9t22.5 9t9.5 23v81q19 10 30.5 28t11.5 39q0 31 -21.5 53t-52.5 22v0zM830 490h-638q-26 0 -45 -19t-19 -45v-425q0 -27 19 -45.5t45 -18.5h638q27 0 45.5 18.5t18.5 45.5v425
q0 26 -18.5 45t-45.5 19v0zM830 43q0 -26 -8 -34t-34 -8h-553q-27 0 -35 8t-8 34v340q0 27 8 35t35 8h553q26 0 34 -8t8 -35v-340v0zM210 522q13 0 22.5 9t9.5 23v0q22 92 97 152t172 60q76 0 139.5 -37.5t99.5 -100.5q9 -19 29 -19q14 0 23 9.5t9 22.5q0 10 -5 19
q-45 77 -123.5 123.5t-171.5 46.5q-123 0 -216 -75.5t-117 -192.5v-2l-0.5 -1l-0.5 -1v0v-4q0 -13 9.5 -22.5t23.5 -9.5v0z" />
    <glyph glyph-name="hzicongerensex" unicode="&#xe620;" 
d="M958 544l-22 111l-4 22q-1 9 -8.5 14t-15.5 3l-127 -27q-12 -3 -19 -13.5t-4.5 -23t12.5 -19.5t22 -4l35 7q4 1 6.5 -2.5t-0.5 -7.5l-103 -162q-7 -13 -21 -7q-68 29 -141 6t-115 -90q-40 -64 -34 -140h-1h-94q-6 0 -10.5 4.5t-4.5 11.5v76q0 15 15 18q73 16 121 77
t48 141q0 92 -62.5 157.5t-150.5 65.5t-150 -65.5t-62 -157.5q0 -80 47.5 -141t120.5 -77q15 -3 15 -18v-76q0 -7 -4.5 -11.5t-10.5 -4.5h-94q-12 0 -20.5 -9t-8.5 -21.5t8.5 -22t20.5 -9.5h94q6 0 10.5 -4.5t4.5 -10.5v-98q0 -13 8.5 -22t20.5 -9t20.5 9t8.5 22v98
q0 6 4.5 10.5t10.5 4.5h94q6 0 12 4q24 -70 83 -111q73 -51 159.5 -32.5t134.5 95.5q42 67 34.5 145.5t-59.5 133.5q-10 11 -3 24l103 162q3 4 7 3t4 -5l7 -37q3 -12 13 -19t22 -4.5t18.5 13t4.5 23.5v0zM280 378q-64 0 -109 47t-45 114t45 114t109 47t109 -47t45 -114
t-45 -114t-109 -47v0zM758 139q-35 -56 -97.5 -69t-115.5 24t-65.5 102t23 121t97.5 69t115 -24t66 -102.5t-23 -120.5v0z" />
    <glyph glyph-name="hzicongerentel" unicode="&#xe621;" 
d="M745 833h-476q-35 0 -59.5 -25t-24.5 -61v-719q0 -36 24.5 -61.5t59.5 -25.5h476q35 0 59.5 25.5t24.5 61.5v719q0 36 -24.5 61t-59.5 25v0zM289 784h436q24 0 40 -16.5t16 -40.5v-27h-548v27q0 24 16.5 40.5t39.5 16.5v0zM781 650v-440h-548v440h548v0zM725 -10h-436
q-23 0 -39.5 17t-16.5 41v111h548v-111q0 -24 -16 -41t-40 -17v0zM725 -10zM462 86q0 -19 13 -33t32 -14t32 14t13 33t-13 33t-32 14t-32 -14t-13 -33v0zM462 86z" />
    <glyph glyph-name="hzicongerentouxiang" unicode="&#xe622;" 
d="M600 342h-178q-125 0 -214 -87.5t-89 -210.5v-18q0 -21 9.5 -36.5t33 -25t44.5 -15t63.5 -7.5t69.5 -2.5t83 -0.5v0h178h60t54.5 1t52.5 3.5t44 6t39 10.5t27 16t19.5 21.5t5.5 28.5v18q0 123 -88.5 210.5t-213.5 87.5v0zM850 25v0q0 -18 -89 -26q-52 -4 -160 -4h-181
q-117 0 -167 4q-82 7 -82 26v17q0 101 73 172.5t176 71.5h181q103 0 176 -71.5t73 -172.5v-17v0zM502 832q-100 0 -170 -69.5t-70 -167t70 -167t169.5 -69.5t170 69.5t70.5 167t-70.5 167t-169.5 69.5v0zM502 415q-77 0 -131 53t-54 128t54 128.5t130.5 53.5t131 -53.5
t54.5 -128.5t-54.5 -128t-130.5 -53v0z" />
    <glyph glyph-name="hzicongerenxingming" unicode="&#xe623;" 
d="M792 267q18 0 24.5 6t6.5 24t-21 34l-1 2q-64 50 -112 68q40 34 63 82t23 103q0 101 -71.5 173t-173 72t-173 -72t-71.5 -173q0 -55 23 -103t63 -82q-127 -49 -206.5 -162t-79.5 -253v0q0 -43 35 -43q17 0 22 10t5 32q0 60 14 115t44.5 104t74.5 84t108 55.5t142 18.5
q61 -1 125 -22.5t107 -57.5q14 -12 26 -15h3zM531 410q-89 0 -138 53t-49 123q0 44 21.5 86t65.5 71t100 29q49 0 86.5 -16.5t58.5 -44.5t31.5 -60t10.5 -66q0 -67 -55 -122.5t-132 -52.5v0zM612 149q0 -18 12.5 -27t31.5 -9h238q19 0 31.5 9t12.5 27q0 34 -44 34h-238
q-44 0 -44 -34v0zM894 4h-238q-44 0 -44 -33t44 -33h238q44 0 44 33t-44 33v0zM894 4z" />
    <glyph glyph-name="hzicongerenyoubian" unicode="&#xe624;" 
d="M781 -25h-543q-72 0 -121 49.5t-49 120.5v204q0 15 9 24.5t24.5 9.5t25 -9.5t9.5 -24.5v-204q0 -41 30.5 -71.5t71.5 -30.5h543q41 0 71.5 30.5t30.5 71.5v476q0 41 -30.5 71.5t-71.5 30.5h-543q-41 0 -71.5 -30.5t-30.5 -71.5q0 -16 9 -25t25 -9h407q16 0 25 -9.5t9 -25
t-9 -24.5t-25 -9h-407q-41 0 -71.5 30.5t-30.5 71.5q0 71 49 120.5t121 49.5h543q72 0 121 -49.5t49 -120.5v-476q0 -71 -49 -120.5t-121 -49.5v0zM441 315h-136q-15 0 -24.5 9.5t-9.5 24.5t9.5 24.5t24.5 9.5h136q16 0 25 -9.5t9 -24.5t-9 -24.5t-25 -9.5v0zM713 179h-68
q-15 0 -24.5 9.5t-9.5 24.5t9.5 24.5t24.5 9.5h68q16 0 25 -9.5t9 -24.5t-9 -24.5t-25 -9.5v0z" />
    <glyph glyph-name="hziconx2" unicode="&#xe625;" 
d="M788 159l-245 226l245 222q7 7 7.5 16.5t-6 16t-16.5 7t-17 -5.5l-242 -221l-243 221q-7 6 -16.5 5.5t-16 -7t-6 -16t7.5 -16.5l245 -222l-245 -226q-7 -6 -7.5 -15.5t6.5 -16.5t17 -7q9 0 15 6l243 223l242 -223q7 -6 16 -6q10 0 17 7t6.5 16.5t-7.5 15.5z" />
    <glyph glyph-name="hzicondaifahuo" unicode="&#xe626;" 
d="M950 215q-6 6 -15 6t-16 -7l-162 -167l-91 84q-6 6 -15 6t-16 -7q-6 -7 -5.5 -16t7.5 -15l107 -98q6 -6 14 -6v0q9 0 16 7l176 182q7 6 6.5 15t-6.5 16v0zM554 373v1q18 5 18 24q0 11 -7.5 18t-17.5 7h-70l74 88l1 1l2 2h-1q4 5 4 12q1 11 -6 18q-8 9 -19 9q-10 0 -17 -6
v-1l-73 -85l-75 89v1q-7 6 -17 6q-11 0 -19 -9q-7 -7 -6 -18q0 -7 4 -12h-1l82 -94h-73l-7 -1v0q-18 -6 -18 -25t18 -24v-1h88v-24h-81h-7v-1q-18 -5 -18 -24t18 -24v-1l88 -1v-36v-7h1q5 -18 24 -18t25 18h1v43h85v2q18 5 18 24q0 10 -7.5 17.5t-17.5 7.5h-78v24h85v0z
M112 92v593q0 15 16 30.5t30 15.5h566q14 0 30 -15.5t16 -30.5v-435h46v439q0 37 -26 62.5t-62 25.5h-574q-36 0 -62 -25.5t-26 -62.5v-601q0 -36 26 -62t62 -26h445v46h-441q-14 0 -30 15.5t-16 30.5v0z" />
    <glyph glyph-name="hzicondaifukuan" unicode="&#xe627;" 
d="M791 -64h-560q-69 0 -118.5 49.5t-49.5 118.5v112v336v112q0 70 49.5 119t118.5 49h336q54 0 97.5 -31t60.5 -81h66q70 0 119 -49t49 -119v-84v-224v-140q0 -69 -49 -118.5t-119 -49.5v0zM567 776h-336q-42 0 -73.5 -28t-36.5 -70q48 42 110 42h433q-15 26 -40.5 41
t-56.5 15v0zM903 440q0 12 -8 20t-20 8h-280q-11 0 -19.5 -8t-8.5 -20v-168q0 -11 8.5 -19.5t19.5 -8.5h280q12 0 20 8.5t8 19.5v168v0zM903 188h-336q-23 0 -39.5 16.5t-16.5 39.5v224q0 23 16.5 39.5t39.5 16.5h336v28q0 47 -32.5 79.5t-79.5 32.5h-560q-46 0 -79 -32.5
t-33 -79.5v-448q0 -46 33 -79t79 -33h560q47 0 79.5 33t32.5 79v84v0zM623 384h56v-56h-56v56v0zM623 384z" />
    <glyph glyph-name="hzicondaipingjia" unicode="&#xe628;" 
d="M851 444q-12 0 -19.5 -8t-7.5 -19v-352q0 -27 -18.5 -46t-44.5 -19h-566q-28 0 -53 19.5t-25 45.5v555q0 26 25.5 49.5t52.5 23.5h305q11 0 19 7t8 18t-8 18.5t-19 7.5h-305q-54 0 -92 -36t-38 -88v-555q0 -52 37.5 -84t92.5 -32h566q53 0 84.5 31.5t31.5 84.5v352
q0 11 -7.5 19t-18.5 8v0v0v0zM932 708l-93 91q-22 22 -56.5 22t-57.5 -22l-75 -87l-402 -377l-26 -226l13 -11l224 30l384 394l89 71q23 23 23 57.5t-23 57.5v0v0v0zM286 161l6 106l100 -98l-106 -8v0v0v0zM440 197l-122 119l359 350l120 -117l-357 -352v0v0v0zM894 634
l-54 -53l-130 128l53 52q8 8 19.5 8t18.5 -8l93 -90q8 -8 8 -19t-8 -18v0v0v0zM894 634z" />
    <glyph glyph-name="hzicondaishouhuo" unicode="&#xe629;" 
d="M869 784h-515q-37 0 -63 -26t-26 -63v-148l-191 -110v-1q-8 -6 -8 -16v-300q0 -10 6 -17t14.5 -7t14.5 7t6 17v288l189 109q16 5 16 22v0v0v151q0 19 13.5 33t33.5 14h506q19 0 33 -14t14 -33v-498q0 -10 6.5 -17t16.5 -7t17 7t7 17v503q0 37 -26.5 63t-63.5 26v0v0v0z
M231 340q-9 0 -15.5 -6.5t-6.5 -16t6.5 -16t15.5 -6.5h1h118q21 0 32 11t12 23l1 11v94q0 9 -6.5 15.5t-16 6.5t-16 -6.5t-6.5 -15.5v-1v-93h-119v0zM761 218q-44 0 -77 -29.5t-38 -72.5h-236q-5 43 -38 72.5t-77 29.5q-48 0 -82.5 -34t-34.5 -82.5t34.5 -83t82.5 -34.5
q41 0 73 26t41 66h239q8 -40 40 -66t73 -26q49 0 83 34.5t34 83t-34 82.5t-83 34v0v0v0zM295 34q-28 0 -47.5 19.5t-19.5 47.5t19.5 48t47.5 20t47.5 -20t19.5 -48t-19.5 -47.5t-47.5 -19.5v0v0v0zM761 34q-27 0 -47 19.5t-20 47.5t20 48t47.5 20t47.5 -20t20 -48t-20 -47.5
t-48 -19.5v0v0v0zM761 34z" />
    <glyph glyph-name="hziconmyerma" unicode="&#xe62a;" 
d="M364 833h-299v-299h299v299v0v0zM304 593h-179v180h179v-180v0zM65 -64h299v299h-299v-299v0zM125 175h179v-180h-179v180v0zM244 354v-60h60h60v60h-60h-60zM663 -5h60v-59h-60v59zM484 833h59v-60h-59v60zM65 354h60v-60h-60v60zM902 294v-59h-60v-60h60v-60v-60h60v60
v60v60v59v60h-60h-60v-60h60zM842 474v-60h60h60v60h-60h-60zM783 294h59v-59h-59v59zM783 474h-60v-60v-60h-60v60v60h-179v60v59h-60v-59v-60h-120h-60h-59h-60h-60v-60h60v-60h60h59v60h60h60v-60h60v-60v-59v-60v-60h60v60v60h59v-60h60v-60h60v60h60v-60h-60v-60h60
v-60h60h59v-59h60v59v60h-60h-59v60h59v60h-59v60h-60h-60h-60v59h60h60h60v60h59v60h-59v60v0v0zM603 354h-60v-60h-59v60v60h119v-60v0v0zM603 55h60v-60h-60v60zM663 833v-299h299v299h-299v0zM902 593h-179v180h179v-180v0zM543 534h60v59v60v60h-60h-59v-60v-60h59v-59
zM424 773h60v-60h-60v60zM543 55v60h-59v-60h-60v-60v-59h60h59h60v59h-60v60z" />
    <glyph glyph-name="hziconmyfanli" unicode="&#xe62b;" 
d="M468 68q-33 -4 -66 -4q-60 0 -112.5 9.5t-86.5 24t-53.5 31t-19.5 31.5v1v1v0.5v1.5v59q48 -30 120.5 -46.5t151.5 -16.5q29 0 64 3v64q-32 -3 -64 -3q-60 0 -112.5 9.5t-86.5 24t-53.5 31t-19.5 31.5v63q48 -30 120.5 -46.5t151.5 -16.5q29 0 64 3v37q0 14 4 27
q-34 -3 -68 -3q-60 0 -112.5 9.5t-86.5 24t-53.5 31t-19.5 31.5v63q48 -30 120.5 -46.5t151 -16.5t151.5 16.5t120 46.5v-49q25 3 48 3q3 0 16 -1v144q0 49 -50.5 86.5t-125.5 55t-159 17.5t-159.5 -17.5t-126 -55t-50.5 -86.5v-480q0 -49 50.5 -86.5t126 -55.5t159.5 -18
q54 0 108 9q-33 26 -42 59v0zM402 735q59 0 111.5 -9t86.5 -23.5t53.5 -31t19.5 -31.5t-19.5 -32t-53.5 -31t-86.5 -23.5t-112 -9.5t-112 9.5t-86.5 23.5t-53.5 31t-19.5 32t19.5 31.5t53.5 31t86.5 23.5t112.5 9v0zM721 480q-102 0 -170.5 -36.5t-68.5 -91.5v-256
q0 -55 68.5 -91.5t171 -36.5t171 36.5t68.5 91.5v256q0 55 -68.5 91.5t-171.5 36.5v0zM897 96q0 -21 -51 -42.5t-124.5 -21.5t-124.5 21.5t-51 42.5v39q69 -39 175.5 -39t175.5 39v-39v0zM897 224q0 -21 -51 -42.5t-124.5 -21.5t-124.5 21.5t-51 42.5v39q69 -39 175.5 -39
t175.5 39v-39v0zM721 288q-73 0 -124 21t-51 42.5t51 43t124.5 21.5t124.5 -21.5t51 -43t-51 -42.5t-125 -21v0z" />
    <glyph glyph-name="hziconmyyincard" unicode="&#xe62c;" 
d="M626 312h56q13 0 22 9.5t9 22.5t-9 22t-22 9h-56q-13 0 -22 -9t-9 -22t9 -22.5t22 -9.5v0zM238 186h222q13 0 22 9.5t9 22.5t-9 22t-22 9h-222q-13 0 -22 -9t-9 -22t9 -22.5t22 -9.5v0zM238 312h277q13 0 22.5 9.5t9.5 22.5t-9.5 22t-22.5 9h-277q-13 0 -22 -9t-9 -22
t9 -22.5t22 -9.5v0zM846 748h-666q-47 0 -80.5 -33.5t-33.5 -80.5v-499q0 -48 33.5 -81.5t80.5 -33.5h666q47 0 80.5 33.5t33.5 81.5v499q0 47 -33.5 80.5t-80.5 33.5v0zM129 582v52q0 21 15 36t36 15h666q21 0 36 -15t15 -36v-52h-768v0zM897 135q0 -22 -15 -37t-36 -15
h-666q-21 0 -36 15t-15 37v384h768v-384v0z" />
    <glyph glyph-name="hzicontuikuan" unicode="&#xe62d;" 
d="M534 807q-115 0 -212 -57t-154 -154t-57 -212q0 -25 3 -50l-30 -11q-15 -5 -18 -21q-3 -18 12 -30l88 -72q9 -7 18 -7q21 0 25 24l23 110q3 16 -7 27q-12 15 -30 9l-23 -8q-2 14 -2 29q0 99 49 182.5t132.5 132.5t182 49t182.5 -49t132.5 -132.5t48.5 -182t-48.5 -182.5
t-132.5 -132.5t-182 -48.5q-137 0 -239 89q-9 8 -21.5 7.5t-20.5 -10t-7 -21.5t10 -20q119 -104 278 -104q114 0 211.5 56.5t154 154t56.5 212t-56.5 211.5t-154 154t-211.5 57v0zM404 297q-12 0 -18 -5t-6 -20q0 -25 25 -25h101v-84q0 -17 5 -24.5t21 -7.5t21.5 7.5
t5.5 24.5v84h101q26 0 26 25t-26 25h-101v41h101q26 0 26 24q0 26 -26 26h-74l92 155q8 12 8 20.5t-11 15.5q-9 6 -19 6t-20 -16l-104 -175l-104 175q-9 15 -20 15t-19 -6t-8 -15.5t5 -19.5l93 -155h-75q-12 0 -18 -5.5t-6 -19.5q0 -25 25 -25h101v-41h-102v0v0z" />
    <glyph glyph-name="hziconi" unicode="&#xe62e;" 
d="M515 832q-91 0 -174 -35.5t-143 -95.5t-95.5 -142.5t-35.5 -173.5t35.5 -174t95.5 -143t143 -95.5t174 -35.5t173.5 35.5t142.5 95.5t95.5 143t35.5 174t-35.5 173.5t-95.5 142.5t-142.5 95.5t-173.5 35.5v0zM585 220q-30 -44 -58 -67t-68 -23q-29 5 -41.5 23t-5.5 41
l74 246q3 11 -7 14q-8 3 -25 -15l-45 -54v30q25 38 62 64.5t65 26.5q26 -3 38.5 -21.5t7.5 -42.5l-75 -247q-1 -10 7 -13q10 -4 27 15l45 54q0 -5 -0.5 -18l-0.5 -13v0zM575 542q-22 0 -37 14t-15 36.5t15 37t36.5 14.5t36.5 -14.5t15 -37t-14.5 -36.5t-36.5 -14v0zM575 542
z" />
    <glyph glyph-name="hziconsharegetgold" unicode="&#xe62f;" 
d="M512 830q-91 0 -173.5 -35.5t-142.5 -95.5t-96 -143t-36 -174t36 -174t96 -143t142.5 -95.5t173.5 -35.5t174 35.5t143 95.5t95.5 143t35.5 174t-35.5 174t-95.5 143t-143 95.5t-174 35.5v0zM512 -18q-108 0 -200 53.5t-145.5 145.5t-53.5 200.5t53.5 200.5t145.5 146
t200.5 54t200.5 -54t145.5 -146t53.5 -200.5t-53.5 -200.5t-145.5 -145.5t-201 -53.5v0zM621 616l-72 -131q-28 -53 -34 -71h-2q-18 43 -105 202h-67l124 -214h-102v-47h120v-65h-120v-48h120v-94h59v94h115v48h-115v65h115v47h-99l126 214h-63v0z" />
    <glyph glyph-name="hz-icon-pintuan" unicode="&#xe6a8;" 
d="M580 320q23 4 36 4q101 0 189 -76q17 19 41 19q5 0 15 -3q-65 74 -157 99q53 25 85.5 75.5t32.5 110.5q0 86 -60 146.5t-146 60.5q-60 0 -111 -33q-51 33 -111 33q-85 0 -145.5 -60.5t-60.5 -146.5q0 -60 32 -109.5t84 -74.5q-105 -30 -173 -118.5t-68 -200.5
q0 -12 8 -20t19.5 -8t19.5 8t8 20q0 114 81 195t195.5 81t195 -81t80.5 -195q0 -12 8.5 -20t20 -8t19.5 8t8 20q0 84 -39.5 156.5t-106.5 117.5zM507 377q18 -12 22 -14q-5 -1 -19 -7q-14 5 -26 9q15 7 23 12zM767 549.5q0 -62.5 -44 -107t-107 -44.5q-34 0 -66 17
q51 59 51 134.5t-51 134.5q33 16 66 16q63 0 107 -44t44 -106.5zM244 549.5q0 62.5 44 106.5t106.5 44t106.5 -44t44 -106.5t-44 -107t-106.5 -44.5t-106.5 44.5t-44 107zM928 157h-54v55q0 11 -8 19.5t-19.5 8.5t-20 -8.5t-8.5 -19.5v-55h-54q-12 0 -20 -8t-8 -19.5
t8 -19.5t20 -8h54v-55q0 -11 8.5 -19t20 -8t19.5 8t8 19v55h54q12 0 20 8t8 19.5t-8 19.5t-20 8z" />
    <glyph glyph-name="hz-icon-xiaoxi" unicode="&#xe6a9;" 
d="M510 -23q-20 0 -35.5 11t-21.5 30h-43q8 -36 36 -59t64.5 -23t64 23t35.5 59h-43q-6 -19 -21.5 -30t-35.5 -11zM834 122l-39 59v285q0 101 -63 179t-161 100v27q0 26 -17.5 43.5t-43.5 17.5t-43.5 -17.5t-17.5 -43.5v-27q-97 -22 -160.5 -100t-63.5 -179v-285l-39 -59
q-13 -20 -2 -41.5t35 -21.5h581q25 0 36.5 21.5t-2.5 41.5zM490 772q0 9 5.5 14.5t14.5 5.5t15 -5.5t6 -14.5v-21h-41v21zM219 99l39 59l6 11v297q0 101 71.5 172.5t172.5 71.5t173 -71.5t72 -172.5v-297l6 -11l39 -59h-579zM219 99z" />
    <glyph glyph-name="hz-icon-qiandao" unicode="&#xe6aa;" 
d="M959 632v-605q-19 -68 -85 -90h-727q-66 22 -85 90v605q13 42 40 63.5t60 23.5t73 0v64q-2 34 20 51h27q24 -15 23 -48q-1 -4 -1 -67h26h150h219q13 0 18 4.5t4 17.5q-1 8 -0.5 24t-0.5 25q-2 30 24 44h22q25 -14 24 -47q-1 -5 -1 -68h62q61 0 93 -53q1 -2 15 -34z
M890 478h-757v-470h757v470zM132 552h757v102h-26h-356h-354h-4.5h-4.5t-4 -0.5t-4 -1.5l-2.5 -2.5t-1.5 -4v-6.5v-87zM444 131q36 40 38 42q46 47 232 233q12 12 15 14q25 21 44 0q20 -22 -2 -44q-15 -14 -106 -106l-192 -192q-18 -18 -31 -18t-31 18q-75 75 -151 150
q-13 14 -15 27.5t9 23.5q21 21 50 -8z" />
    <glyph glyph-name="hziconxiangxia-copy" unicode="&#xe6ab;" 
d="M74.5 134q17.5 -16 41.5 -15.5t41 17.5l359 373l349 -375q16 -18 39.5 -18.5t40.5 16t17.5 40.5t-15.5 41l-390 419q-16 18 -39.5 18.5t-40.5 -16.5l-2 -2l-2 -2l-400 -415q-17 -17 -16.5 -41t18 -40z" />
    <glyph glyph-name="iconMT_search" unicode="&#xe6e5;" 
d="M708 247q181 -180 201 -200q21 -21 25 -26q29 -33 1 -62q-28 -28 -61 3q-13 13 -115 114q-3 3 -17.5 18t-22.5 23q-7 6 -20.5 22.5t-24.5 26.5t-23 12q-10 2 -23.5 -3t-31.5 -15.5t-27 -14.5q-112 -49 -231 -15.5t-195 135.5q-72 96 -65 220.5t90 221.5q77 89 199 110.5
t227 -34.5q92 -50 142.5 -136t48 -185.5t-59.5 -186.5q-1 -1 -17 -28zM430 196.5q113 -0.5 193.5 79t80.5 192.5q1 115 -79.5 195.5t-195.5 80.5q-113 0 -192.5 -80.5t-79.5 -193.5t80 -193t193 -80.5zM219 484q32 90 38 105q1 3 5 5.5t10 5t9 3.5q0 -2 2.5 -8.5t3.5 -11
t0 -8.5q-12 -48 -30 -96q-1 -3 -4.5 -6.5t-8.5 -7t-7 -5.5q-3 4 -9 12.5t-9 11.5z" />
    <glyph glyph-name="iconMT_fenlei" unicode="&#xe6e6;" 
d="M65 111q8 1 34.5 5t34.5 4.5t34 -0.5q7 -1 13 -25t5 -42q-1 -11 -13 -24t-24 -15q-19 -2 -27 -2.5t-28.5 2t-28.5 2.5v95zM65 425q61 27 91 19t33 -51q7 -106 -124 -46v78zM65 740q60 27 90.5 19.5t33.5 -50.5q3 -53 -27.5 -65t-96.5 18v78zM634 641h-250q-35 0 -51 14
t-16 49q1 34 17.5 45.5t48.5 11.5q306 -1 501 0q32 0 47 -13t15 -46.5t-14.5 -47t-46.5 -13.5h-251zM632 326h-243q-36 -1 -53.5 10.5t-18.5 47.5q0 36 16.5 48.5t52.5 12.5q253 -1 493 0q35 0 51 -13t16 -49t-18 -47t-54 -10h-242zM631 10h-115h-136q-31 0 -46.5 13.5
t-15.5 46t14 46.5t46 14h170t170 -0.5t169 -1.5q15 -1 32.5 -18.5t23.5 -34.5q9 -29 -5.5 -47t-47.5 -18h-259z" />
  </font>
</defs>
</svg>
